# xmcd
#
# Track frame offsets:
# 150
# 18985
# 36780
# 60967
# 76930
# 98950
# 114570
# 131287
# 154962
# 174727
#
# Disc length: 2549 seconds
#
#
# Revision: 0
# Processed by: cddbd v1.4PL0 Copyright (c) Steve Scherf et al.
# Submitted via: FreeRIP 2.00 
#
DISCID=7409f30a
DTITLE=Asleep at the Wheel - Live and Kickin' Greatest Hits
DYEAR=1992
DGENRE=Country
TTITLE0=(Get Your Kicks On) Route 66
TTITLE1=Miles And Miles of Texas
TTITLE2=Take Me Back To Tulsa/ Stay All Night
TTITLE3=Black And White Rag
TTITLE4=Jambalaya
TTITLE5=Ain't Nobody Here But Us Chickens
TTITLE6=Dance With Who Brung You
TTITLE7=Choo Choo Ch'Boogie
TTITLE8=House of Blue Lights
TTITLE9=Beat Me Daddy (Eight To The Bar)
EXTD=
EXTT0=
EXTT1=
EXTT2=
EXTT3=
EXTT4=
EXTT5=
EXTT6=
EXTT7=
EXTT8=
EXTT9=
PLAYORDER=
